<svg width="71" height="61" viewBox="0 0 71 61" fill="none" xmlns="http://www.w3.org/2000/svg">
<path fill-rule="evenodd" clip-rule="evenodd" d="M51.4439 0.0265116L70.9462 0.0353488V0.239671C70.9462 2.45842 69.016 6.01387 66.5623 8.31443C63.1598 11.5045 58.7662 13.364 53.7571 13.7339C53.0259 13.7879 52.927 13.8042 53.4487 13.7848C56.8998 13.6568 60.9251 12.3969 63.8029 10.544C67.7751 7.98654 70.7668 3.76099 70.9743 0.414891L71 0L51.4707 0.0088372L31.9417 0.017522L51.4439 0.0265116ZM30.6051 0.0595749C25.3927 0.396912 20.2517 2.42718 17.0314 5.42025C13.4293 8.76818 12.238 13.0272 13.5665 17.8073C13.6463 18.0946 13.7265 18.325 13.7446 18.3192C13.7627 18.3134 13.9301 18.1338 14.1164 17.9202C16.2503 15.473 18.4638 14.3636 21.9283 14.0044C22.1883 13.9774 22.3327 13.9536 22.2492 13.9515C22.0266 13.946 21.2017 14.0438 20.6232 14.1444C17.8897 14.6193 15.9373 15.7455 14.033 17.9452C13.7184 18.3084 13.7478 18.3282 13.5605 17.6276C12.2601 12.764 13.6124 8.42703 17.4665 5.10104C20.8777 2.15719 26.0101 0.27502 31.1808 0.0716118L31.8182 0.0466238L31.3043 0.0470809C31.0214 0.0473857 30.7068 0.0530232 30.6051 0.0595749ZM37.4314 13.8467C28.2666 13.8615 22.8716 13.8829 22.689 13.905L22.4012 13.9399L22.689 13.9233C22.8473 13.9142 29.4718 13.8997 37.4099 13.891C46.6972 13.8808 51.8572 13.863 51.8829 13.8409C51.9049 13.822 51.9147 13.8103 51.9046 13.8148C51.8943 13.8194 45.3814 13.8337 37.4314 13.8467ZM52.2064 13.8327C52.3601 13.8395 52.6005 13.8395 52.7411 13.8325C52.8814 13.8256 52.7558 13.8202 52.4618 13.8202C52.1677 13.8203 52.0527 13.8258 52.2064 13.8327ZM21.2086 19.0559C11.2986 19.4595 2.87249 25.7268 0.565196 34.4102C-0.613029 38.8448 0.110586 43.8234 2.18046 45.5213C4.27022 47.2357 7.78112 46.2082 8.23289 43.7499C8.68075 41.3119 5.76979 39.4259 3.1305 40.4444C3.07017 40.4677 3.06892 40.4465 3.11648 40.212C3.82909 36.7071 7.81873 33.7899 12.8814 33.072C14.1272 32.8954 14.0326 32.898 20.1189 32.8748L25.8965 32.8527L20.0778 32.8578C13.583 32.8631 13.8752 32.853 12.285 33.1275C7.65513 33.926 3.89688 36.7225 3.13848 39.9332C3.03521 40.3711 3.01019 40.5013 3.03006 40.5013C3.03894 40.5013 3.2375 40.4465 3.47119 40.3796C6.40114 39.5398 9.11922 41.9759 7.96885 44.4104C7.00498 46.4503 3.9187 46.9857 2.12386 45.4246C0.135073 43.6949 -0.546133 38.7461 0.608315 34.4168C2.73107 26.4557 10.1195 20.4043 19.1114 19.262C20.5265 19.0823 19.9406 19.0903 32.4513 19.0775L44.1052 19.0658L44.0772 19.3934C43.7791 22.8714 41.0252 26.7825 36.9562 29.5063C34.4012 31.2166 30.7785 32.404 27.0685 32.7473C26.7859 32.7735 26.632 32.7968 26.7268 32.7993C28.1834 32.8363 31.5335 32.0877 33.6481 31.2529C39.2186 29.0537 43.7718 23.9034 44.1166 19.412L44.1457 19.0324L32.8005 19.0391C26.5607 19.0428 21.3444 19.0503 21.2086 19.0559ZM26.0919 32.8293C26.1767 32.8369 26.3155 32.8369 26.4003 32.8293C26.4851 32.8217 26.4157 32.8154 26.2461 32.8154C26.0764 32.8154 26.0071 32.8217 26.0919 32.8293Z" fill="#C42424"/>
<path fill-rule="evenodd" clip-rule="evenodd" d="M35.9099 49.7191C34.1651 49.882 32.9983 51.2108 33.3374 52.6484C33.9426 55.213 38.4823 55.3209 39.2704 52.7895C39.8071 51.0657 38.1083 49.5137 35.9099 49.7191ZM41.6467 49.7176C40.5158 49.8954 39.8703 50.5808 40.0632 51.3988C40.2002 51.9807 40.6007 52.244 41.8316 52.562C42.8247 52.8184 43.0529 52.9534 43.0095 53.2587C42.9241 53.8597 41.432 53.7463 40.4241 53.0622C40.3125 52.9865 40.214 52.9308 40.205 52.9386C40.1959 52.9464 40.0754 53.1557 39.9372 53.4039L39.6858 53.8552L39.7782 53.9138C41.5562 55.04 44.0149 54.7999 44.3811 53.4643C44.6148 52.6122 44.0881 52.0616 42.6906 51.6961C41.6039 51.4119 41.3124 51.2271 41.462 50.917C41.6444 50.539 42.4553 50.5704 43.5287 50.9972C43.7269 51.0761 43.8953 51.1342 43.9027 51.1264C43.9737 51.0528 44.3767 50.2338 44.3559 50.2052C44.1447 49.9119 42.4042 49.5986 41.6467 49.7176ZM0.626884 52.1538V54.5903H1.28485H1.94281V53.6723V52.7541H3.19715H4.45133V52.295V51.8361H3.19715H1.94281V51.2535V50.6708H3.32048H4.69797V50.1941V49.7175H2.66252H0.626884V52.1538ZM5.28389 51.3328C5.30217 53.1071 5.30572 53.135 5.56833 53.5984C6.35228 54.9814 9.36012 54.9805 10.1421 53.597C10.3854 53.1662 10.3863 53.1594 10.4035 51.3682L10.4193 49.7175H9.76061H9.10212L9.08988 51.2975C9.07781 52.8611 9.07657 52.8795 8.98306 53.0543C8.5524 53.8574 7.15894 53.8467 6.71639 53.0367L6.61028 52.8423L6.59768 51.28L6.58508 49.7175H5.92606H5.26721L5.28389 51.3328ZM11.4832 52.1503V54.5903H12.1412H12.7992V53.9017V53.2132H13.4321H14.0649L14.5085 53.9017L14.9519 54.5903H15.6849C16.0881 54.5903 16.4179 54.5801 16.4179 54.5674C16.4179 54.5549 16.156 54.1959 15.8359 53.7696C15.2665 53.0114 15.2262 52.9343 15.3987 52.9311C15.4149 52.9308 15.5458 52.8359 15.6899 52.7203C16.6344 51.9616 16.4398 50.4583 15.3345 49.9762C14.8534 49.7664 14.6378 49.7434 12.9945 49.7261L11.4832 49.7103V52.1503ZM16.7469 50.2117V50.7062H17.6105H18.4742V52.6482V54.5903H19.1321H19.7901V52.649V50.7075L20.6432 50.6979L21.4966 50.6885L21.5081 50.2029L21.5194 49.7175H19.1332H16.7469V50.2117ZM23.354 49.7431C23.3374 49.7664 21.1154 54.1507 20.9552 54.4763L20.8984 54.5919L21.5839 54.5823L22.2693 54.5726L22.4792 54.123L22.6892 53.6733L23.9845 53.673L25.2798 53.6727L25.4873 54.1226L25.6945 54.5726L26.4022 54.5823C26.7915 54.5875 27.1096 54.5875 27.1096 54.5823C27.1094 54.577 26.5677 53.4841 25.9057 52.1538L24.7022 49.735L24.0379 49.7254C23.6727 49.72 23.3649 49.728 23.354 49.7431ZM27.6444 52.1501V54.5903L28.9912 54.59C30.7493 54.5896 31.1837 54.5229 31.8303 54.1537C33.5485 53.173 33.4002 50.8095 31.5716 50.0332C30.9387 49.7645 30.7767 49.7443 29.1146 49.7261L27.6444 49.7101V52.1501ZM14.3962 50.7252C14.8201 50.8334 15.0199 51.0705 15.0199 51.4652C15.0199 52.0886 14.6948 52.2598 13.5114 52.2598H12.7992V51.4652V50.6708H13.4908C13.9944 50.6708 14.2405 50.6856 14.3962 50.7252ZM30.6168 50.7746C31.9867 51.2277 32.063 52.9919 30.7359 53.5251C30.5139 53.6142 30.4644 53.6194 29.7314 53.6311L28.9604 53.6435V52.1527V50.6618L29.6696 50.6789C30.2738 50.6935 30.4143 50.7077 30.6168 50.7746ZM36.5885 50.7059C37.8425 50.882 38.4296 52.1678 37.664 53.0608C37.0335 53.7963 35.8381 53.8435 35.0958 53.1621C33.9983 52.1547 35.0131 50.4846 36.5885 50.7059ZM24.4288 51.8713L24.8407 52.7541H23.9847H23.1289L23.3957 52.198C23.5427 51.892 23.7306 51.495 23.8134 51.3153C23.8961 51.1357 23.9758 50.9888 23.9903 50.9886C24.0049 50.9886 24.2022 51.3859 24.4288 51.8713ZM1.69616 56.551C0.880983 56.7447 0.52379 57.1104 0.524499 57.7506C0.525209 58.4437 0.858093 58.7082 2.15041 59.0422C2.96612 59.2531 3.20975 59.3963 3.24808 59.6881C3.34461 60.4246 1.6935 60.4321 0.721994 59.6997C0.645516 59.6421 0.57649 59.6011 0.568683 59.6086C0.560698 59.6159 0.468072 59.7699 0.362848 59.9508L0.171387 60.2794L0.265432 60.3478C1.80458 61.4664 4.26217 61.0635 4.26217 59.6927C4.26217 59.0043 3.89894 58.7125 2.59509 58.3537C1.89401 58.1606 1.68675 58.0587 1.56822 57.8484C1.20712 57.2081 2.49678 57.0211 3.63934 57.5481C3.74687 57.5978 3.8395 57.6319 3.84518 57.6239C3.90356 57.5411 4.2045 56.9822 4.2045 56.9565C4.2045 56.9082 3.57138 56.6537 3.27931 56.5847C2.92389 56.5008 1.99125 56.481 1.69616 56.551ZM7.01592 56.5357C5.74826 56.7176 4.82289 57.6473 4.82289 58.7393C4.82289 60.6675 7.39174 61.6714 9.25259 60.4703C9.56631 60.2679 9.56649 60.2784 9.24709 59.9767L8.98714 59.7311L8.81732 59.8559C7.48597 60.8343 5.43507 59.8802 5.78375 58.4443C6.07671 57.2376 7.66323 56.8124 8.8152 57.6319L9.00488 57.7669L9.20575 57.549C9.56152 57.1633 9.54857 57.2093 9.34486 57.0542C8.79958 56.6387 7.81903 56.4203 7.01592 56.5357ZM17.8984 56.5477C16.1699 56.862 15.2571 58.397 16.0102 59.7231C17.089 61.6231 20.6069 61.3193 21.1676 59.2776C21.6167 57.6421 19.8754 56.1881 17.8984 56.5477ZM23.7281 56.5335C21.5911 56.8425 20.7461 59.0122 22.2569 60.3113C23.5556 61.428 25.9435 61.1213 26.715 59.7388C27.6689 58.0293 25.9726 56.209 23.7281 56.5335ZM35.7045 56.5488C32.5437 57.1524 33.0584 60.9809 36.3007 60.9841C39.4325 60.9873 40.1407 57.3961 37.1643 56.6039C36.7876 56.5037 36.0803 56.477 35.7045 56.5488ZM59.8022 56.551C58.9911 56.7438 58.63 57.1136 58.6305 57.7506C58.6312 58.4425 58.9639 58.7076 60.2499 59.0409C61.097 59.2603 61.3147 59.3879 61.3541 59.6876C61.4508 60.4246 59.8001 60.4324 58.828 59.6997C58.7517 59.6421 58.6827 59.6011 58.6747 59.6086C58.6667 59.6159 58.5741 59.7699 58.4689 59.9508L58.2774 60.2794L58.3716 60.3478C60.019 61.5453 62.6887 60.9564 62.354 59.4693C62.2275 58.9072 61.8935 58.6819 60.7013 58.3537C60.0002 58.1606 59.7928 58.0587 59.6742 57.8484C59.3139 57.209 60.6044 57.0219 61.7454 57.5481C61.8529 57.5978 61.9455 57.6319 61.9512 57.6239C62.0096 57.5411 62.3107 56.9822 62.3107 56.9565C62.3107 56.9082 61.6774 56.6537 61.3853 56.5847C61.0301 56.5008 60.0975 56.481 59.8022 56.551ZM67.3425 56.5357C65.8236 56.7537 64.8501 58.0273 65.2293 59.3003C65.7086 60.9099 67.9699 61.5189 69.5791 60.4719C69.893 60.2675 69.8932 60.2784 69.5738 59.9767L69.3139 59.7311L69.1441 59.8559C67.6237 60.9732 65.4154 59.604 66.2546 58.0642C66.7596 57.1378 68.1626 56.9265 69.1405 57.6295L69.3321 57.7672L69.5738 57.5024C69.881 57.1658 69.8778 57.198 69.6226 57.0235C69.0216 56.6126 68.1323 56.4223 67.3425 56.5357ZM10.373 58.757V60.9815H10.8253H11.2776V60.0634V59.1454H12.6141H13.9506V60.0634V60.9815H14.4029H14.8554V58.757V56.5323H14.4029H13.9506V57.4858V58.4392H12.6141H11.2776V57.4858V56.5323H10.8253H10.373V58.757ZM27.8501 58.757V60.9815H29.4333H31.0164V60.6284V60.2753H29.9061H28.7959V58.4038V56.5323H28.323H27.8501V58.757ZM39.94 58.757V60.9815H40.3923H40.8446V60.0634V59.1454H42.0167H43.1887V58.8099V58.4745H42.0167H40.8446V57.8565V57.2385H42.1402H43.4355V56.8855V56.5323H41.6877H39.94V58.757ZM46.3552 58.757V60.9815H46.7869H47.2188L47.2225 59.366L47.2262 57.7506L48.0244 59.1365L48.8225 60.5225L49.1206 60.5208L49.4187 60.5191L50.2002 59.1457L50.9815 57.7721L50.9921 59.3768L51.0028 60.9815H51.4341H51.8655V58.757V56.5323L51.3207 56.5331L50.7758 56.5338L49.9496 57.972L49.1236 59.4102L48.2845 57.9712L47.4454 56.5323H46.9003H46.3552V58.757ZM53.0678 58.0419C53.0847 59.7015 53.0851 59.7039 53.3567 60.1447C54.0763 61.3117 56.6307 61.2761 57.3295 60.0893C57.5602 59.6974 57.5801 59.5287 57.5809 57.9536L57.5817 56.5323H57.1313H56.6811L56.6675 57.9889C56.6517 59.6701 56.6526 59.6651 56.2879 59.9782C55.7173 60.4684 54.5766 60.3696 54.1854 59.7964C53.9815 59.4978 53.9641 59.3483 53.9634 57.883L53.9629 56.5323H53.5077H53.0526L53.0678 58.0419ZM63.3388 58.757V60.9815H63.7911H64.2434V58.757V56.5323H63.7911H63.3388V58.757ZM18.9396 57.256C20.297 57.5597 20.7584 58.9894 19.7722 59.8362C18.7403 60.7221 16.9689 60.229 16.6987 58.9805C16.4714 57.9316 17.7074 56.9804 18.9396 57.256ZM24.6378 57.2407C26.021 57.5145 26.5092 58.9813 25.5032 59.8405C24.5441 60.6597 22.906 60.298 22.4998 59.1774C22.1022 58.0805 23.3177 56.9793 24.6378 57.2407ZM36.753 57.2513C37.917 57.5187 38.4841 58.6345 37.895 59.4979C37.1517 60.5871 35.3375 60.5301 34.6854 59.3969C34.0283 58.2556 35.3146 56.9208 36.753 57.2513Z" fill="white"/>
<path fill-rule="evenodd" clip-rule="evenodd" d="M31.1808 0.071785C27.3724 0.221103 23.3818 1.3355 20.2922 3.11254C14.3729 6.51685 11.9733 11.691 13.5605 17.6276C13.7479 18.3282 13.7184 18.3084 14.0331 17.9452C16.2516 15.3822 18.5635 14.2474 22.1751 13.9483C23.3593 13.8502 24.4804 13.8423 37.9249 13.8374C45.6036 13.8347 52.2099 13.8197 52.6057 13.8045C59.0535 13.5545 64.4446 11.0837 68.0187 6.74067C69.6983 4.69973 70.9463 1.92836 70.9463 0.239692V0.0352173L51.3823 0.0410072C40.6221 0.0440545 31.5315 0.0579197 31.1808 0.071785ZM21.2499 19.0907C12.5587 19.522 5.22281 24.0876 1.79761 31.197C-0.997124 36.9979 -0.367732 44.5296 3.03475 46.0016C4.65552 46.7028 6.6294 46.2536 7.63497 44.9548C9.51942 42.5207 6.72291 39.4476 3.47126 40.3796C3.23757 40.4465 3.03901 40.5014 3.03014 40.5014C3.01026 40.5014 3.03528 40.3711 3.13855 39.9332C3.89695 36.7225 7.6552 33.926 12.2851 33.1275C13.8561 32.8564 13.5703 32.8666 20.3451 32.8395C27.253 32.8119 27.0439 32.8206 29.0836 32.4802C31.9179 32.0074 34.9063 30.8787 36.9563 29.5064C41.0247 26.7828 43.7793 22.8713 44.0771 19.3945L44.1051 19.0678L32.7803 19.0742C26.5517 19.0777 21.3629 19.0852 21.2499 19.0907Z" fill="#C82828"/>
<path fill-rule="evenodd" clip-rule="evenodd" d="M31.1808 0.071785C27.3724 0.221103 23.3818 1.3355 20.2922 3.11254C14.3729 6.51685 11.9733 11.691 13.5605 17.6276C13.7479 18.3282 13.7184 18.3084 14.0331 17.9452C16.2516 15.3822 18.5635 14.2474 22.1751 13.9483C23.3593 13.8502 24.4804 13.8423 37.9249 13.8374C45.6036 13.8347 52.2099 13.8197 52.6057 13.8045C59.0535 13.5545 64.4446 11.0837 68.0187 6.74067C69.6983 4.69973 70.9463 1.92836 70.9463 0.239692V0.0352173L51.3823 0.0410072C40.6221 0.0440545 31.5315 0.0579197 31.1808 0.071785ZM21.2499 19.0907C12.5587 19.522 5.22281 24.0876 1.79761 31.197C-0.997124 36.9979 -0.367732 44.5296 3.03475 46.0016C4.65552 46.7028 6.6294 46.2536 7.63497 44.9548C9.51942 42.5207 6.72291 39.4476 3.47126 40.3796C3.23757 40.4465 3.03901 40.5014 3.03014 40.5014C3.01026 40.5014 3.03528 40.3711 3.13855 39.9332C3.89695 36.7225 7.6552 33.926 12.2851 33.1275C13.8561 32.8564 13.5703 32.8666 20.3451 32.8395C27.253 32.8119 27.0439 32.8206 29.0836 32.4802C31.9179 32.0074 34.9063 30.8787 36.9563 29.5064C41.0247 26.7828 43.7793 22.8713 44.0771 19.3945L44.1051 19.0678L32.7803 19.0742C26.5517 19.0777 21.3629 19.0852 21.2499 19.0907Z" fill="#C82828"/>
<path fill-rule="evenodd" clip-rule="evenodd" d="M31.1808 0.071785C27.3724 0.221103 23.3818 1.3355 20.2922 3.11254C14.3729 6.51685 11.9733 11.691 13.5605 17.6276C13.7479 18.3282 13.7184 18.3084 14.0331 17.9452C16.2516 15.3822 18.5635 14.2474 22.1751 13.9483C23.3593 13.8502 24.4804 13.8423 37.9249 13.8374C45.6036 13.8347 52.2099 13.8197 52.6057 13.8045C59.0535 13.5545 64.4446 11.0837 68.0187 6.74067C69.6983 4.69973 70.9463 1.92836 70.9463 0.239692V0.0352173L51.3823 0.0410072C40.6221 0.0440545 31.5315 0.0579197 31.1808 0.071785ZM21.2499 19.0907C12.5587 19.522 5.22281 24.0876 1.79761 31.197C-0.997124 36.9979 -0.367732 44.5296 3.03475 46.0016C4.65552 46.7028 6.6294 46.2536 7.63497 44.9548C9.51942 42.5207 6.72291 39.4476 3.47126 40.3796C3.23757 40.4465 3.03901 40.5014 3.03014 40.5014C3.01026 40.5014 3.03528 40.3711 3.13855 39.9332C3.89695 36.7225 7.6552 33.926 12.2851 33.1275C13.8561 32.8564 13.5703 32.8666 20.3451 32.8395C27.253 32.8119 27.0439 32.8206 29.0836 32.4802C31.9179 32.0074 34.9063 30.8787 36.9563 29.5064C41.0247 26.7828 43.7793 22.8713 44.0771 19.3945L44.1051 19.0678L32.7803 19.0742C26.5517 19.0777 21.3629 19.0852 21.2499 19.0907Z" fill="#C82828"/>
</svg>
